PathFileType	4	(X/Y/Z)	SUBJ11_2_walk_RCNL2025.trc
DataRate	CameraRate	NumFrames	NumMarkers	Units	OrigDataRate	OrigDataStartFrame	OrigNumFrames
100	100	6	25	mm	100	419	478
Frame#	Time	R_Shoulder			L_Shoulder			C7			J_Notch			R_Elbow			L_Elbow			R_Wrist			L_Wrist			R_Asis			L_Asis			Sacral			Thoracic			Sternum			R_Thigh_Lateral			R_Knee_Lateral			R_Shank_Lateral			R_Ankle_Lateral			R_Heel			R_Toe			L_Thigh_Lateral			L_Knee_Lateral			L_Shank_Lateral			L_Ankle_Lateral			L_Heel			L_Toe		
		X1	Y1	Z1	X2	Y2	Z2	X3	Y3	Z3	X4	Y4	Z4	X5	Y5	Z5	X6	Y6	Z6	X7	Y7	Z7	X8	Y8	Z8	X9	Y9	Z9	X10	Y10	Z10	X11	Y11	Z11	X12	Y12	Z12	X13	Y13	Z13	X14	Y14	Z14	X15	Y15	Z15	X16	Y16	Z16	X17	Y17	Z17	X18	Y18	Z18	X19	Y19	Z19	X20	Y20	Z20	X21	Y21	Z21	X22	Y22	Z22	X23	Y23	Z23	X24	Y24	Z24	X25	Y25	Z25
419	4.18000000	2438.579834	1412.862549	81.240746	2477.307129	1424.498901	-312.199982	2412.313477	1465.084229	-114.837875	2560.288574	1364.011597	-100.959145	2360.504150	1071.452881	141.767944	2488.042969	1077.487427	-389.673828	2419.713013	816.046753	125.746563	2582.181030	831.835083	-348.682236	2538.542236	948.013733	36.320381	2535.010742	942.852112	-253.747467	2359.001465	962.682068	-110.522552	2334.827637	1282.691284	-128.166595	2628.203369	1166.802734	-104.702095	2536.641602	599.964905	75.626961	2593.527588	457.786835	3.753545	2595.256348	249.108963	23.627617	2581.442871	54.971348	-53.961311	2523.579590	40.940002	-104.540123	2718.255127	37.523392	-82.404648	2447.753662	595.408813	-345.224976	2442.391602	450.683929	-269.624847	2285.437256	315.371521	-290.061829	2144.698730	191.133957	-206.802307	2115.105469	227.600754	-147.810150	2206.304932	68.135406	-182.618118
420	4.19000000	2450.257568	1415.321289	81.591682	2488.290771	1426.062500	-312.186462	2423.719482	1467.272827	-114.480942	2571.698730	1366.336792	-100.700523	2375.307373	1073.404785	143.688461	2495.858887	1078.591553	-388.431824	2438.731323	819.083649	127.809662	2582.486450	829.873383	-350.584991	2549.589844	949.688721	37.248173	2547.005859	945.129028	-253.269608	2370.172607	964.742065	-110.633148	2346.307129	1284.754639	-127.392639	2639.759521	1169.141968	-104.175125	2542.825684	600.477905	75.256439	2597.665039	457.733795	3.452268	2597.241455	249.081680	23.453953	2581.719238	55.080307	-54.182964	2523.666260	41.098518	-104.760445	2718.479980	37.513065	-82.651894	2465.929443	597.672302	-345.781555	2465.848145	453.344971	-271.102051	2308.453125	319.651825	-291.531067	2167.141602	196.228775	-208.377792	2138.219971	231.411743	-148.081528	2228.827637	72.905350	-188.673248
421	4.20000000	2461.762207	1417.866699	81.873306	2499.148193	1427.531860	-312.268829	2435.086426	1469.479004	-114.248505	2583.003418	1368.627319	-100.471909	2390.248535	1075.466919	145.702042	2503.277588	1079.688477	-387.373047	2457.808960	822.278290	129.941086	2582.657227	828.358490	-352.487152	2560.483398	951.300171	38.146721	2558.870117	947.483459	-252.817184	2381.135498	966.818665	-110.784691	2357.679688	1286.811279	-126.640343	2651.146729	1171.453857	-103.599960	2549.238037	601.250183	75.078247	2601.552979	457.736298	3.150220	2599.229004	249.097382	23.339693	2581.955566	55.162643	-54.340050	2523.746094	41.265259	-104.911934	2718.646240	37.498287	-82.837418	2484.216064	600.130676	-346.295227	2489.165771	456.354431	-272.384705	2331.776855	323.554047	-292.974976	2190.616211	200.014374	-210.090607	2161.964844	233.887070	-148.715363	2253.117676	76.966087	-194.185928
422	4.21000000	2473.115723	1420.494385	82.079559	2509.905029	1428.930420	-312.408936	2446.407959	1471.673584	-114.144386	2594.219971	1370.862183	-100.272179	2405.322266	1077.646484	147.777908	2510.315918	1080.827759	-386.507477	2476.913818	825.629791	132.127575	2582.766968	827.289886	-354.353134	2571.228760	952.849426	39.027164	2570.662109	949.892944	-252.352036	2391.968994	968.905090	-110.937981	2368.962402	1288.838501	-125.933479	2662.371338	1173.711548	-102.973068	2555.752930	602.207275	75.035378	2605.164795	457.777496	2.837697	2601.111084	249.145447	23.256159	2582.150635	55.222721	-54.454609	2523.819824	41.439682	-105.010460	2718.764648	37.479527	-82.968575	2502.754150	602.736389	-346.789154	2512.281250	459.618683	-273.461304	2355.363525	326.982635	-294.413330	2215.064697	202.393509	-211.989334	2186.239990	235.052521	-149.859650	2279.040283	80.155914	-198.896957
423	4.22000000	2484.348877	1423.181030	82.207436	2520.581787	1430.268799	-312.574432	2457.675293	1473.817383	-114.159531	2605.365723	1373.015503	-100.104370	2420.502197	1079.933594	149.888123	2516.986328	1082.036011	-385.843201	2496.033081	829.131927	134.363194	2582.889404	826.646088	-356.155319	2581.833008	954.331116	39.897949	2582.448730	952.321655	-251.844955	2402.762939	970.982971	-111.059464	2380.165771	1290.805542	-125.279007	2673.449951	1175.883911	-102.300133	2562.224365	603.254456	75.042763	2608.478760	457.850220	2.498748	2602.776123	249.219543	23.172989	2582.310303	55.271198	-54.548862	2523.887695	41.620262	-105.079185	2718.847656	37.457333	-83.058205	2521.594727	605.460327	-347.263824	2535.152344	463.035889	-274.316498	2379.244629	329.813263	-295.854675	2240.431152	203.326218	-214.086533	2210.978760	234.935287	-151.578079	2306.462891	82.380646	-202.675842
424	4.23000000	2495.496582	1425.884399	82.257309	2531.195801	1431.543823	-312.741333	2468.884033	1475.866089	-114.275459	2616.458740	1375.057251	-99.973724	2435.748047	1082.302979	152.011734	2523.300537	1083.315918	-385.384399	2515.160889	832.766846	136.645138	2583.091431	826.386078	-357.876678	2592.303467	955.732361	40.763309	2594.273438	954.717957	-251.279007	2413.585449	973.017822	-111.125084	2391.301270	1292.678101	-124.677864	2684.406982	1177.937500	-101.593811	2568.529541	604.303528	75.016861	2611.494873	457.952515	2.118087	2604.153564	249.316254	23.065363	2582.443359	55.320568	-54.642250	2523.949219	41.804993	-105.141884	2718.908203	37.432636	-83.120728	2540.728027	608.286377	-347.704834	2557.757812	466.501190	-274.943176	2403.510010	331.899750	-297.300110	2266.662842	202.831635	-216.357666	2236.156006	233.561142	-153.844620	2335.247314	83.610962	-205.520905
